<?xml version="1.0" encoding="UTF-8"?>
<svg width="957px" height="216px" viewBox="0 0 957 216" version="1.1" xmlns="http://www.w3.org/2000/svg" xmlns:xlink="http://www.w3.org/1999/xlink">
    <!-- Generator: Sketch 52.5 (67469) - http://www.bohemiancoding.com/sketch -->
    <title>Artboard</title>
    <desc>Created with Sketch.</desc>
    <defs>
        <polygon id="path-1" points="0 0 29.2217391 0 29.2217391 29.9998333 0 29.9998333"></polygon>
        <polygon id="path-3" points="0.210284181 0.000164788732 21.8559417 0.000164788732 21.8559417 29.25 0.210284181 29.25"></polygon>
        <polygon id="path-5" points="0.0829948808 0 19.7069781 0 19.7069781 29.2498352 0.0829948808 29.2498352"></polygon>
    </defs>
    <g id="Artboard" stroke="none" stroke-width="1" fill="none" fill-rule="evenodd">
        <g id="Group" transform="translate(10.000000, 32.000000)">
            <path d="M47.4103873,49.9058099 L2.49524648,49.9058099 C1.12288732,49.9058099 -8.52651283e-14,48.7829225 -8.52651283e-14,47.4105634 L-8.52651283e-14,2.49542254 C-8.52651283e-14,1.12288732 1.12288732,1.0658141e-14 2.49524648,1.0658141e-14 L47.4103873,1.0658141e-14 C48.7827465,1.0658141e-14 49.9056338,1.12288732 49.9056338,2.49542254 L49.9056338,47.4105634 C49.9056338,48.7829225 48.7827465,49.9058099 47.4103873,49.9058099" id="Page-1" fill="#2D2C2C" opacity="0.5"></path>
            <path d="M40.4245246,42.3283451 L40.4245246,42.3283451 C41.4035739,42.3283451 42.2085035,41.6653169 42.3283979,40.8091549 L41.2676585,27.8457746 L31.9236444,22.8959507 L31.9236444,27.8051056 L22.6764613,22.9054577 L22.6764613,27.865669 L15.2220599,23.9908451 L13.9595599,7.3943662 L8.23948944,7.3943662 L7.39441901,40.5297535 L7.39794014,40.5297535 C7.39653169,40.5487676 7.39494718,40.5695423 7.39494718,40.5911972 C7.39494718,41.5024648 8.1690669,42.246831 9.15551056,42.3216549 L9.15551056,42.3283451 L40.4245246,42.3283451 Z" id="Fill-1" fill="#FFFFFF"></path>
        </g>
        <g id="Icons-/-Dark-/-Facebook" fill="#2D2C2C">
            <g id="facebook-logo" transform="translate(7.000000, 3.000000)">
                <path d="M9.62342935,0.00374520146 L7.22488407,0 C4.5302007,0 2.78877793,1.73870978 2.78877793,4.42982429 L2.78877793,6.4722699 L0.377147915,6.4722699 C0.16875445,6.4722699 0,6.63668425 0,6.83948691 L0,9.79875784 C0,10.0015605 0.168946872,10.1657876 0.377147915,10.1657876 L2.78877793,10.1657876 L2.78877793,17.6329703 C2.78877793,17.8357729 2.95753238,18 3.16592584,18 L6.31241702,18 C6.52081048,18 6.68956493,17.8355857 6.68956493,17.6329703 L6.68956493,10.1657876 L9.50932287,10.1657876 C9.71771633,10.1657876 9.88647078,10.0015605 9.88647078,9.79875784 L9.88762532,6.83948691 C9.88762532,6.74211167 9.84779388,6.64885615 9.77717485,6.57994445 C9.70655583,6.51103274 9.61034463,6.4722699 9.51028498,6.4722699 L6.68956493,6.4722699 L6.68956493,4.74086327 C6.68956493,3.9086795 6.89334026,3.48622078 8.00727357,3.48622078 L9.62304451,3.485659 C9.83124555,3.485659 10,3.32124466 10,3.11862926 L10,0.370774945 C10,0.168346806 9.83143797,0.00411972161 9.62342935,0.00374520146 Z" id="Path"></path>
            </g>
        </g>
        <g id="Icons-/-Dark-/-Food" transform="translate(24.000000, 0.000000)">
            <g id="restaurant-interface-symbol-of-fork-and-knife-couple" transform="translate(6.000000, 2.000000)">
                <path d="M1.61532894,7.62193374 L1.61532894,18.9145624 C1.61532894,19.2089887 1.71418423,19.4636533 1.91229693,19.6787017 C2.10692456,19.8902182 2.33724063,19.9966501 2.60260844,20 C2.8678087,19.9966501 3.09829232,19.8901818 3.29312101,19.6787017 C3.49103265,19.4636533 3.58985443,19.2089887 3.58985443,18.9145624 L3.58985443,7.62193374 C3.88682242,7.50894774 5,6.43086538 5,6.08520759 L5,1.54330137 C5,1.39645233 4.95037129,1.26897441 4.851516,1.16134095 C4.75245965,1.05392597 4.63514021,1 4.4999933,1 C4.36444427,1 4.24732588,1.05392597 4.14847059,1.16134095 C4.04941424,1.26919288 3.9999866,1.39645233 3.9999866,1.54330137 L3.9999866,5.0748877 C3.9999866,5.22217367 3.95035789,5.34943312 3.8515026,5.45684811 C3.75244625,5.56448157 3.63532786,5.61797059 3.49997989,5.61797059 C3.36443086,5.61797059 3.24731248,5.56448157 3.14845719,5.45684811 C3.0496019,5.34943312 2.99997319,5.2219552 2.99997319,5.0748877 L2.99997319,1.54330137 C2.99997319,1.39645233 2.95034449,1.26897441 2.8514892,1.16134095 C2.75263391,1.05392597 2.63534797,1 2.5,1 C2.36445097,1 2.24733258,1.05392597 2.14847729,1.16134095 C2.04942094,1.26919288 1.9999933,1.39645233 1.9999933,1.54330137 L1.9999933,5.0748877 C1.9999933,5.22217367 1.95036459,5.34943312 1.8515093,5.45684811 C1.75245295,5.56448157 1.63533457,5.61797059 1.4999866,5.61797059 C1.36443756,5.61797059 1.24731918,5.56448157 1.14846389,5.45684811 C1.04940754,5.34943312 0.999979894,5.2219552 0.999979894,5.0748877 L0.999979894,1.54330137 C0.999979894,1.39645233 0.950552249,1.26897441 0.851495898,1.16134095 C0.752640609,1.05392597 0.635354673,1 0.499973192,1 C0.36442416,1 0.247305774,1.05392597 0.148483995,1.16134095 C0.0496287062,1.26919288 0,1.39645233 0,1.54330137 L0,6.08502553 C0.000100530803,6.43061049 1.31836095,7.50872926 1.61532894,7.62193374 Z" id="Path" fill="#2D2C2C"></path>
                <path d="M3.03795,20.00185 C3.02505,20.00185 3.01285,19.99815 2.99995,19.99815 C2.98715,19.99815 2.97545,20.00185 2.96205,20.00185 L3.03795,20.00185 Z" id="Path" fill="#000000"></path>
                <path d="M9.0379,20.00185 C9.025,20.00185 9.0129,19.99815 9,19.99815 C8.9871,19.99815 8.9748,20.00185 8.9621,20.00185 L9.0379,20.00185 Z" id="Path" fill="#000000"></path>
                <path d="M7.22303687,9.94459141 L8.23659325,9.94459141 L8.23659325,18.8962714 C8.23659325,19.1955851 8.32484439,19.4546151 8.50158607,19.6732134 C8.67551472,19.8882942 8.88122456,19.9965937 9.11820685,20 C9.35497965,19.9965937 9.56083912,19.8882572 9.73482763,19.6732134 C9.91156931,19.4546151 10,19.1955851 10,18.8962714 L10,0.552456731 C10,0.403133094 9.95570984,0.273506995 9.86742878,0.164059766 C9.77899808,0.0548346906 9.6744374,0 9.55356715,0 L9.23267297,0 C8.61859588,0 8.09297941,0.270581985 7.65579363,0.81144975 C7.2186677,1.35253967 7,2.00289169 7,2.76243176 L7,9.66841859 C7,9.74321 7.02214508,9.80800453 7.06628561,9.86261707 C7.11021666,9.91719258 7.16258678,9.94459141 7.22303687,9.94459141 Z" id="Path" fill="#2D2C2C"></path>
            </g>
        </g>
        <g id="Icons-/-Yellow-/-Contact" transform="translate(48.000000, 0.000000)" fill="#FFB80E">
            <g id="phone-receiver" transform="translate(2.000000, 2.000000)">
                <path d="M19.990467,15.783871 C20.0328468,16.1087638 19.933903,16.3912492 19.6940506,16.6313271 L16.8780942,19.4278286 C16.7510586,19.5690713 16.5852411,19.6892315 16.3805726,19.7879975 C16.1759041,19.886902 15.974799,19.9504612 15.7772572,19.9786751 C15.7631421,19.9786751 15.7206931,19.98231 15.6500832,19.9893722 C15.5796116,19.9963997 15.4878637,20 15.3749431,20 C15.1066876,20 14.6726146,19.9540961 14.0727242,19.8622538 C13.4728337,19.7704114 12.7388847,19.5443885 11.8708772,19.1842888 C11.002662,18.82412 10.0181705,18.2837974 8.91722969,17.5635289 C7.81628887,16.843295 6.64470351,15.8545269 5.40257741,14.5974324 C4.41452255,13.6228578 3.59584852,12.690656 2.94655533,11.8008616 C2.29726214,10.9109981 1.77500457,10.0882594 1.37978263,9.33261096 C0.98452609,8.57696256 0.688109633,7.89193549 0.490498662,7.27752978 C0.29288769,6.66312406 0.158794531,6.13346396 0.0882191837,5.68854948 C0.0176438367,5.24363499 -0.010586302,4.89405933 0.00352876735,4.63982248 C0.0176438367,4.38558563 0.0247013714,4.24434294 0.0247013714,4.2160944 C0.0529315102,4.01835463 0.116449323,3.81708379 0.215254808,3.61228188 C0.314060294,3.40747998 0.434038384,3.24151981 0.575189078,3.11440139 L3.39114542,0.296609656 C3.58875639,0.0988698854 3.8145975,0 4.06866875,0 C4.25216466,0 4.41448795,0.05296601 4.55563865,0.15889803 C4.69678934,0.26483005 4.81676743,0.395479541 4.91557292,0.550846504 L7.18104156,4.85168652 C7.30807718,5.07767483 7.34336485,5.32484954 7.28690458,5.59321066 C7.2304443,5.86157178 7.11046621,6.08756008 6.92697031,6.27117559 L5.88951271,7.30930938 C5.86128257,7.33755792 5.8365812,7.3834618 5.81540859,7.44702101 C5.79423599,7.51058022 5.78364969,7.56354623 5.78364969,7.60591904 C5.84010996,7.90252869 5.96714559,8.24151116 6.16475656,8.62286643 C6.33413739,8.96184889 6.59526618,9.37498377 6.94814291,9.86227106 C7.30101965,10.3495584 7.80210461,10.9109634 8.4513978,11.5465556 C9.08657592,12.1963412 9.6511787,12.7012146 10.1452061,13.0614527 C10.6391298,13.4214831 11.0521339,13.686417 11.3838381,13.8559082 C11.7155422,14.0253995 11.9696134,14.1278004 12.1460172,14.1630072 L12.4106056,14.2160079 C12.4388357,14.2160079 12.4848135,14.20538 12.5482621,14.1842282 C12.6117799,14.1630072 12.6576539,14.1383244 12.6859186,14.1100412 L13.8927225,12.8812298 C14.1469321,12.6552761 14.4432102,12.5422819 14.7820064,12.5422819 C15.0220318,12.5422819 15.2124814,12.5846201 15.3536321,12.6694004 L15.3747702,12.6694004 L19.4610481,15.0846504 C19.7575684,15.2684044 19.9339722,15.5013856 19.990467,15.783871 Z" id="Path"></path>
            </g>
        </g>
        <g id="Icons-/-Yellow-/-Location" transform="translate(72.000000, 0.000000)" fill="#FFB80E">
            <g id="maps-and-flags" transform="translate(5.000000, 2.000000)">
                <path d="M7.5,0 C3.36447767,0 0,3.41176588 0,7.60537255 C0,12.8097695 6.71176528,20.4501284 6.99752463,20.7728398 C7.26593215,21.0759866 7.73455322,21.0754534 8.00247537,20.7728398 C8.28823472,20.4501284 15,12.8097695 15,7.60537255 C14.9999191,3.41176588 11.6354819,0 7.5,0 Z M7.5,11.4318479 C5.41931596,11.4318479 3.7266013,9.7153009 3.7266013,7.60537255 C3.7266013,5.4954442 5.4193564,3.7789382 7.5,3.7789382 C9.5806436,3.7789382 11.2733582,5.49548521 11.2733582,7.60541356 C11.2733582,9.71534192 9.5806436,11.4318479 7.5,11.4318479 Z" id="Shape" fill-rule="nonzero"></path>
            </g>
        </g>
        <g id="Icons-/-Yellow-/-Time" transform="translate(96.000000, 0.000000)" fill="#FFB80E">
            <g id="clock-circular-outline" transform="translate(2.000000, 2.000000)">
                <path d="M9.91428571,0 C4.44755102,0 0,4.44755102 0,9.91428571 C0,15.3810204 4.44755102,19.8285714 9.91428571,19.8285714 C15.3810204,19.8285714 19.8285714,15.3810204 19.8285714,9.91428571 C19.8285714,4.44755102 15.3810204,0 9.91428571,0 Z M9.91428571,17.7189796 C5.61081633,17.7189796 2.10938776,14.2179592 2.10938776,9.91428571 C2.10938776,5.61061224 5.61081633,2.10959184 9.91428571,2.10959184 C14.2177551,2.10959184 17.7191837,5.61061224 17.7191837,9.91428571 C17.7191837,14.2179592 14.2177551,17.7189796 9.91428571,17.7189796 Z" id="Shape" fill-rule="nonzero"></path>
                <path d="M15.0812245,9.60816327 L10.6257143,9.60816327 L10.6257143,4.25102041 C10.6257143,3.80020408 10.2602041,3.43469388 9.80938776,3.43469388 C9.35857143,3.43469388 8.99306122,3.80020408 8.99306122,4.25102041 L8.99306122,10.4244898 C8.99306122,10.8753061 9.35857143,11.2408163 9.80938776,11.2408163 L15.0812245,11.2408163 C15.5320408,11.2408163 15.897551,10.8753061 15.897551,10.4244898 C15.897551,9.97367347 15.5320408,9.60816327 15.0812245,9.60816327 Z" id="Path"></path>
            </g>
        </g>
        <g id="Icons-/-Yellow-/-Website" transform="translate(120.000000, 0.000000)" fill="#FFB80E">
            <g id="global-(1)" transform="translate(2.000000, 2.000000)">
                <path d="M10.3489467,19.9576242 C11.8770926,19.7405134 13.2167271,18.1455776 14.0597098,15.7901437 C12.8410993,15.5172294 11.5975516,15.370745 10.3489467,15.3533063 L10.3489467,19.9576242 Z" id="Path"></path>
                <path d="M12.7903529,19.5830427 C12.880685,19.5568848 12.9706683,19.5305525 13.059954,19.5016044 C13.1352888,19.4773647 13.2095773,19.4512067 13.2838658,19.4252232 C13.3717564,19.39488 13.4592983,19.3636649 13.5464913,19.3305315 C13.6207799,19.302281 13.6943708,19.2722866 13.7681362,19.2422921 C13.8532366,19.2065429 13.9381627,19.1709682 14.0222168,19.135219 C14.0956334,19.1029576 14.1685268,19.0691267 14.2414202,19.0351214 C14.3239049,18.9962333 14.4060407,18.9566476 14.4874791,18.9154925 C14.5589774,18.8790458 14.6303013,18.8419015 14.7017996,18.8037109 C14.7818429,18.760812 14.861363,18.717041 14.9403599,18.6720494 C15.0118583,18.6315918 15.0807408,18.5909598 15.1503209,18.5491071 C15.2277483,18.5014997 15.304827,18.4538923 15.3813825,18.4062849 C15.4499163,18.3626883 15.5182757,18.3183942 15.5857631,18.2727051 C15.6610979,18.2219587 15.7353864,18.1691197 15.8093262,18.1162807 C15.8757673,18.0686733 15.9418596,18.0212402 16.0067313,17.9734584 C16.0782296,17.9183524 16.1514718,17.8613281 16.2231446,17.8041295 C16.2867955,17.7533831 16.3502721,17.7029855 16.4128767,17.650844 C16.4842006,17.5915527 16.55256,17.5301688 16.6217913,17.4687849 C16.6824777,17.4148996 16.7435129,17.3615374 16.8028041,17.306257 C16.8709891,17.242606 16.9374303,17.176688 17.0038714,17.1112933 C17.0614188,17.0544433 17.1196638,16.9984654 17.1759905,16.9402204 C17.1864537,16.9294085 17.1963937,16.9177246 17.2072056,16.9065639 C16.4282227,16.504255 15.6077358,16.1884417 14.7600446,15.9648786 C14.3191964,17.3707799 13.5346331,18.6448451 12.4775042,19.6712821 C12.5064523,19.6637835 12.5354004,19.65768 12.5643485,19.6501813 C12.6407296,19.6287319 12.7157157,19.6051897 12.7903529,19.5830427 Z" id="Path"></path>
                <path d="M19.9836077,10.3430176 L15.7013812,10.3430176 C15.6851632,12.0150321 15.4425921,13.6771066 14.9802944,15.284075 C15.9230259,15.5358887 16.8327986,15.8979143 17.6907785,16.3626535 C19.0994699,14.6648298 19.9058315,12.5479562 19.9836077,10.3430176 Z" id="Path"></path>
                <path d="M10.3489467,9.62873188 L14.9870954,9.62873188 C14.9689593,8.01583429 14.7323172,6.4128767 14.2839704,4.86345562 C12.9924665,5.15799384 11.6734096,5.31529018 10.3489467,5.33272879 L10.3489467,9.62873188 Z" id="Path"></path>
                <path d="M10.3489467,0.0141252679 L10.3489467,4.61844308 C11.5975516,4.60083009 12.8410993,4.45452009 14.0597098,4.18160576 C13.2167271,1.82617187 11.8770926,0.231236071 10.3489467,0.0141252679 Z" id="Path"></path>
                <path d="M10.3489467,14.6390206 C11.6734096,14.6566337 12.9924665,14.81393 14.2839704,15.1084682 C14.7323172,13.5590471 14.9689593,11.9559152 14.9870954,10.3430176 L10.3489467,10.3430176 L10.3489467,14.6390206 Z" id="Path"></path>
                <path d="M17.6907785,3.60909598 C16.8327986,4.07383509 15.9230259,4.43586076 14.9802944,4.68767438 C15.4425921,6.29464286 15.6851632,7.95671737 15.7013812,9.62873187 L19.9836077,9.62873187 C19.9056571,7.42396763 19.0992955,5.30709402 17.6907785,3.60909598 Z" id="Path"></path>
                <path d="M17.208252,3.06727817 C17.1977888,3.05664063 17.1878488,3.04513116 17.17756,3.03414482 C17.1210589,2.97589982 17.0624651,2.9197475 17.0049177,2.86307196 C16.9386509,2.79767719 16.8725586,2.73158482 16.8041992,2.66810826 C16.7450823,2.61300223 16.6838728,2.56086076 16.6231864,2.50592911 C16.5539551,2.44454518 16.4847238,2.38263813 16.4135742,2.32334683 C16.3518415,2.27120536 16.2885393,2.22133089 16.2257603,2.1712821 C16.154262,2.11338589 16.0810198,2.05583844 16.0074288,2.00055804 C15.942906,1.95190429 15.8775112,1.90482004 15.8117676,1.85773576 C15.7371303,1.80402482 15.6621442,1.7504883 15.5861119,1.69939313 C15.519322,1.65440152 15.4514858,1.61045621 15.3836496,1.56738281 C15.3063965,1.51768277 15.2293178,1.46902902 15.1506696,1.42194473 C15.0817871,1.38061522 15.0122071,1.33980888 14.9424526,1.30022321 C14.8625837,1.25453402 14.7825404,1.21023996 14.7017996,1.16699219 C14.6303013,1.13124304 14.5589774,1.09235491 14.4874791,1.05660576 C14.4053432,1.01510183 14.3225098,0.975167411 14.2375837,0.935930536 C14.1660854,0.901925223 14.0935407,0.868791875 14.0199498,0.836530402 C13.9353725,0.799037411 13.8499233,0.765206473 13.7646484,0.729457321 C13.6910575,0.699462902 13.6178153,0.669817232 13.5435268,0.641566696 C13.4568569,0.608433304 13.3689663,0.577392589 13.2810756,0.547049375 C13.2067871,0.520891473 13.1324986,0.494907946 13.0571638,0.470493839 C12.9678781,0.441545759 12.8785924,0.415213438 12.7868652,0.388706741 C12.7125767,0.366908482 12.6379395,0.344761429 12.562779,0.324881429 C12.5340053,0.317034018 12.5047084,0.310930536 12.4757603,0.30343192 C13.5328892,1.32986884 14.3172782,2.60375978 14.7583008,4.00983536 C15.6068638,3.78627232 16.4285714,3.4702846 17.208252,3.06727817 Z" id="Path"></path>
                <path d="M0,9.62873187 L4.28222656,9.62873187 C4.29844446,7.95671737 4.54101562,6.29464286 5.00313893,4.68767438 C4.06058174,4.43603518 3.15080915,4.07400946 2.29282924,3.60909598 C0.884137857,5.30691964 0.07777625,7.42396763 0,9.62873187 Z" id="Path"></path>
                <path d="M9.63466098,19.9576242 L9.63466098,15.3533063 C8.38605607,15.3709194 7.14250839,15.5172294 5.92389786,15.7901437 C6.76670621,18.1455776 8.10651509,19.7405134 9.63466098,19.9576242 Z" id="Path"></path>
                <path d="M9.63466098,10.3430176 L4.99651228,10.3430176 C5.01464844,11.9559152 5.25111607,13.5590471 5.69963728,15.1084682 C6.99114116,14.8137556 8.31002371,14.6564593 9.63466098,14.6390206 L9.63466098,10.3430176 Z" id="Path"></path>
                <path d="M9.63466098,0.0141252679 C8.10651509,0.231236071 6.76670621,1.82617187 5.92389786,4.18160576 C7.14250839,4.45469446 8.38605607,4.60100446 9.63466098,4.61844308 L9.63466098,0.0141252679 Z" id="Path"></path>
                <path d="M9.63466098,5.33272879 C8.31019813,5.31529018 6.99114116,5.15799384 5.69963728,4.86345562 C5.25111607,6.4128767 5.01464844,8.01583429 4.99651228,9.62873188 L9.63466098,9.62873188 L9.63466098,5.33272879 Z" id="Path"></path>
                <path d="M7.50505719,0.303083125 C7.47610911,0.310581741 7.44716098,0.316685268 7.4182129,0.324183884 C7.34252929,0.344412679 7.26789201,0.366908482 7.19255719,0.388706741 C7.10292272,0.414864688 7.01398576,0.441196964 6.9240025,0.469796339 C6.84814455,0.494384777 6.77350723,0.520542679 6.69887,0.54652625 C6.6115025,0.577392589 6.52396067,0.608084554 6.43746513,0.640869152 C6.36282786,0.669468482 6.28923688,0.699114107 6.21529714,0.729457321 C6.13037107,0.765206473 6.04527063,0.800955625 5.96139089,0.836530402 C5.88779996,0.868791875 5.81508089,0.902622768 5.7421875,0.93662808 C5.65970286,0.975516161 5.57756696,1.01510183 5.49612862,1.05625696 C5.42463031,1.09270366 5.35313196,1.13002232 5.28180804,1.16803848 C5.20176478,1.2109375 5.12241911,1.25488281 5.04359652,1.29987446 C4.97209821,1.33980888 4.90182058,1.38078964 4.83293804,1.42264232 C4.75533621,1.46937777 4.67860629,1.51768277 4.60222518,1.56546455 C4.53351701,1.60940987 4.46533205,1.65370397 4.3978446,1.69939312 C4.32250978,1.75013951 4.24822125,1.80297853 4.17428152,1.8558175 C4.1078404,1.90342496 4.04174804,1.95085799 3.97670201,1.9988142 C3.9036342,2.0537458 3.83387973,2.11094446 3.76028879,2.16796875 C3.69681223,2.21871513 3.6328125,2.26911272 3.57073103,2.32160295 C3.49923268,2.38054549 3.43139647,2.44158062 3.36251393,2.5026158 C3.30147879,2.55702429 3.23992049,2.6098633 3.1802804,2.66619 C3.1124442,2.72949219 3.04635183,2.79523576 2.98008509,2.86045621 C2.92253768,2.91730607 2.86394393,2.97345844 2.80744281,3.03187777 C2.79715402,3.04268973 2.78721402,3.05454799 2.77640205,3.06553433 C3.55521067,3.46801759 4.37587192,3.78383089 5.22356304,4.00739397 C5.66441125,2.60219027 6.44845143,1.32899692 7.50505719,0.303083125 Z" id="Path"></path>
                <path d="M2.97851562,17.1086775 C3.04495674,17.1740723 3.11104911,17.2401646 3.17923411,17.3038156 C3.2385254,17.3587472 3.29956054,17.4108887 3.36042134,17.4658203 C3.42965263,17.5273786 3.49888393,17.5891113 3.57003348,17.6484026 C3.63176616,17.7001953 3.6947196,17.7502442 3.75784737,17.8004674 C3.82934571,17.8583636 3.90066964,17.915911 3.97635321,17.9715402 C4.04070174,18.0198451 4.10609652,18.0665806 4.17149134,18.1145368 C4.24612862,18.1680734 4.32146344,18.2216099 4.3974958,18.2730538 C4.46428571,18.3180455 4.53212192,18.3619908 4.59995813,18.4052386 C4.67721121,18.4547642 4.75428991,18.5034179 4.83293804,18.5505022 C4.90182058,18.5920062 4.97140067,18.6326381 5.04115513,18.6723982 C5.12102402,18.7180873 5.20106723,18.7623814 5.28180804,18.8054548 C5.35313196,18.841204 5.42463031,18.8800921 5.49612862,18.9158412 C5.57826451,18.9573451 5.66109795,18.9972796 5.74602402,19.0366908 C5.81752232,19.0703474 5.89006696,19.1034808 5.96365795,19.1359166 C6.04823522,19.1734096 6.13351004,19.2072405 6.21895929,19.2429897 C6.29255022,19.2729841 6.36579241,19.3026297 6.44008089,19.3308803 C6.52675085,19.364188 6.61464147,19.3952288 6.7025321,19.425572 C6.77682058,19.4515555 6.85110911,19.4777134 6.92644393,19.5019531 C7.01572964,19.5309012 7.10501536,19.5574079 7.19674246,19.5837402 C7.27103098,19.6055385 7.34566826,19.6276855 7.42065429,19.64774 C7.44960241,19.6555873 7.47889929,19.6616908 7.50784737,19.6691895 C6.45071848,18.6425781 5.66632951,17.3686872 5.22530692,15.9626116 C4.3776158,16.1863491 3.55695451,16.5021624 2.77814594,16.90482 C2.78860911,16.9154576 2.79854911,16.9269671 2.80901228,16.9379534 C2.86254884,16.9958496 2.92027063,17.052002 2.97851562,17.1086775 Z" id="Path"></path>
                <path d="M2.29282924,16.3626535 C3.15080915,15.8979143 4.06058174,15.5358887 5.00313893,15.284075 C4.54101562,13.6771066 4.29844446,12.0150321 4.28222656,10.3430176 L0,10.3430176 C0.077950625,12.5477818 0.884137857,14.6646554 2.29282924,16.3626535 Z" id="Path"></path>
            </g>
        </g>
        <g id="Logo" transform="translate(3.000000, 98.000000)">
            <text id="Sve-na-jednom-mjestu" font-family="Rubik-Regular, Rubik" font-size="19" font-weight="normal" line-spacing="22.6240005" fill="#FFFFFF">
                <tspan x="0" y="63">Sve na jednom mjestu!</tspan>
            </text>
            <rect id="Rectangle" fill="#FFB80E" fill-rule="nonzero" transform="translate(99.500000, 39.000000) scale(1, -1) translate(-99.500000, -39.000000) " x="0" y="38" width="199" height="2"></rect>
            <g id="Elements-/-Logo-/-Light">
                <g id="Group-24">
                    <g id="Group-3">
                        <mask id="mask-2" fill="white">
                            <use xlink:href="#path-1"></use>
                        </mask>
                        <g id="Clip-2"></g>
                        <path d="M4.07047686,27.12525 C1.55663604,25.2081667 0.214235624,22.34775 0.0428471248,18.5415 C0.0141395512,17.7919167 0,16.5560833 0,14.8335833 C0,13.0835833 0.0141395512,11.8198333 0.0428471248,11.0415 C0.18552805,7.43108333 1.54249649,4.68733333 4.11332398,2.81233333 C6.68415147,0.937333333 10.1402006,-0.000166666667 14.4823282,-0.000166666667 C17.3959327,-0.000166666667 19.9667602,0.4165 22.1948107,1.24983333 C24.4228612,2.08316667 26.1367461,3.20858333 27.3364656,4.62525 C28.5361851,6.0415 29.1638955,7.59775 29.2217391,9.2915 C29.2217391,9.54191667 29.1287609,9.75691667 28.9432328,9.93775 C28.7572763,10.1185833 28.5361851,10.2081667 28.2791024,10.2081667 L18.8098878,10.2081667 C18.2378787,10.2081667 17.8244039,10.0560833 17.5673212,9.75025 C17.5386136,9.69483333 17.4100722,9.52108333 17.1816971,9.22941667 C16.9524649,8.93775 16.6032609,8.68108333 16.1319425,8.45816667 C15.6606241,8.2365 15.110467,8.12483333 14.4823282,8.12483333 C12.3682511,8.12483333 11.2687938,9.1665 11.1830996,11.2498333 C11.154392,11.9998333 11.1402525,13.1669167 11.1402525,14.75025 C11.1402525,16.3335833 11.154392,17.5281667 11.1830996,18.3331667 C11.2687938,20.6944167 12.4256662,21.8748333 14.6537167,21.8748333 C15.796021,21.8748333 16.6889551,21.6394167 17.331662,21.1665 C17.9743689,20.6944167 18.2957223,19.9448333 18.2957223,18.9169167 L18.2957223,18.8748333 L16.2819074,18.8748333 C15.9674095,18.8748333 15.6961872,18.7644167 15.4678121,18.5415 C15.2385799,18.3198333 15.1250351,18.0560833 15.1250351,17.75025 L15.1250351,13.1248333 C15.1250351,12.8198333 15.2385799,12.5560833 15.4678121,12.3335833 C15.6961872,12.1115 15.9674095,11.9998333 16.2819074,11.9998333 L28.0648668,11.9998333 C28.3789362,11.9998333 28.6501585,12.1115 28.8789621,12.3335833 C29.1073373,12.5560833 29.2217391,12.8198333 29.2217391,13.1248333 L29.2217391,18.5415 C29.2217391,20.9865 28.6004558,23.0698333 27.3578892,24.7915 C26.1153226,26.5144167 24.3868696,27.8123333 22.1733871,28.68775 C19.9594762,29.56275 17.3959327,29.9998333 14.4823282,29.9998333 C10.0540778,29.9998333 6.5838892,29.0419167 4.07047686,27.12525" id="Fill-1" fill="#FEFEFE" mask="url(#mask-2)"></path>
                    </g>
                    <path d="M45.801769,21.8517857 C46.779777,21.8517857 47.5691423,21.5663893 48.1702839,20.9951786 C48.7710064,20.4248036 49.0992448,19.5815679 49.1554185,18.4671429 C49.2111729,17.6598429 49.2392597,16.6152 49.2392597,15.3332143 C49.2392597,14.0244857 49.2111729,12.9932143 49.1554185,12.2410714 C49.0992448,11.1274821 48.7429196,10.2917679 48.0864427,9.73392857 C47.4295466,9.176925 46.5982607,8.89821429 45.5921659,8.89821429 L43.0769288,8.89821429 L43.0769288,21.8517857 L45.801769,21.8517857 Z M32.9321391,29.6657143 C32.708283,29.4429964 32.5967742,29.1784929 32.5967742,28.8717857 L32.5967742,1.87821429 C32.5967742,1.57234286 32.708283,1.30783929 32.9321391,1.08428571 C33.155576,0.861985714 33.4209336,0.75 33.7286309,0.75 L45.801769,0.75 C48.4566018,0.75 50.8179902,1.19585357 52.8863535,2.08714286 C54.9542976,2.97926786 56.6030355,4.28841429 57.8329865,6.01541786 C59.0625182,7.74242143 59.7194143,9.8175 59.8032555,12.2410714 C59.85901,13.80135 59.8870968,14.8602 59.8870968,15.4172036 C59.8870968,15.9462107 59.85901,16.9628571 59.8032555,18.4671429 C59.6355731,22.3118464 58.3289074,25.1946429 55.8836777,27.1172036 C53.4380288,29.0389286 50.1472603,30 46.0113721,30 L33.7286309,30 C33.4209336,30 33.155576,29.88885 32.9321391,29.6657143 Z" id="Fill-4" fill="#FEFEFE"></path>
                    <path d="M68.9944815,28.8056937 C66.9572568,28.0089401 65.3160177,26.8488275 64.0711885,25.3245317 C62.8255105,23.8002359 62.1888777,21.9945634 62.1612903,19.9066901 C62.1612903,19.659919 62.2529654,19.4473415 62.4371645,19.2685458 C62.6209391,19.090162 62.8403652,19.0003521 63.0950183,19.0003521 L71.7532233,19.0003521 C72.2052325,19.0003521 72.5524096,19.1033451 72.7930567,19.309331 C73.0332795,19.5153169 73.2662871,19.8523099 73.4933527,20.318662 C73.7760177,20.9234366 74.094334,21.3485915 74.4483018,21.5961866 C74.8018452,21.8433697 75.3039362,21.9665493 75.9549992,21.9665493 C76.7754066,21.9665493 77.3980334,21.7131866 77.8224552,21.2048134 C78.246877,20.6964401 78.4590879,19.8387148 78.4590879,18.6299894 L78.4590879,9.11302817 L65.8537601,9.11302817 C65.5422345,9.11302817 65.2735755,9.00385563 65.0473587,8.7834507 C64.8207174,8.56428169 64.7078212,8.30350352 64.7078212,8.0011162 L64.7078212,1.86273592 C64.7078212,1.56076056 64.8207174,1.29998239 65.0473587,1.07957746 C65.2735755,0.860408451 65.5422345,0.75 65.8537601,0.75 L88.305674,0.75 C88.6167752,0.75 88.8854342,0.860408451 89.1120755,1.07957746 C89.3382923,1.29998239 89.4516129,1.56076056 89.4516129,1.86273592 L89.4516129,18.9595669 C89.4516129,21.4042077 88.8502072,23.4570634 87.6478202,25.1185458 C86.4450088,26.7804401 84.8041941,28.0089401 82.7245272,28.8056937 C80.6448603,29.6020352 78.2748889,30 75.6154618,30 C73.2386996,30 71.0317062,29.6020352 68.9944815,28.8056937" id="Fill-6" fill="#FEFEFE"></path>
                    <path d="M94.3375035,29.6657143 C94.1122199,29.4429964 94,29.1784929 94,28.8717857 L94,1.87821429 C94,1.57234286 94.1122199,1.30783929 94.3375035,1.08428571 C94.5623652,0.861567857 94.8294149,0.75 95.1390743,0.75 L116.781487,0.75 C117.090724,0.75 117.357774,0.861567857 117.583058,1.08428571 C117.807919,1.30783929 117.920561,1.57234286 117.920561,1.87821429 L117.920561,7.77 C117.920561,8.07670714 117.807919,8.34121071 117.583058,8.56392857 C117.357774,8.78706429 117.090724,8.89821429 116.781487,8.89821429 L104.125105,8.89821429 L104.125105,11.5307143 L115.853352,11.5307143 C116.16259,11.5307143 116.429639,11.6422821 116.654923,11.865 C116.879785,12.0885536 116.992426,12.3526393 116.992426,12.6589286 L116.992426,18.0910714 C116.992426,18.3977786 116.879785,18.6622821 116.654923,18.885 C116.429639,19.1081357 116.16259,19.2192857 115.853352,19.2192857 L104.125105,19.2192857 L104.125105,21.8517857 L117.11899,21.8517857 C117.428228,21.8517857 117.695277,21.9633536 117.920561,22.1860714 C118.145423,22.409625 118.258065,22.6741286 118.258065,22.98 L118.258065,28.8717857 C118.258065,29.1784929 118.145423,29.4429964 117.920561,29.6657143 C117.695277,29.88885 117.428228,30 117.11899,30 L95.1390743,30 C94.8294149,30 94.5623652,29.88885 94.3375035,29.6657143" id="Fill-8" fill="#FEFEFE"></path>
                    <g id="Group-12" transform="translate(121.290323, 0.750000)">
                        <mask id="mask-4" fill="white">
                            <use xlink:href="#path-3"></use>
                        </mask>
                        <g id="Clip-11"></g>
                        <path d="M3.40217314,27.0461155 C1.38642128,25.5774359 0.32231737,23.4145838 0.210284181,20.5575592 C0.210284181,20.3099641 0.294837531,20.0977986 0.463944231,19.9190028 C0.633050931,19.740619 0.844434305,19.6512211 1.09809435,19.6512211 L3.25420478,19.6512211 C3.87355806,19.6512211 4.2265683,19.9672035 4.31112165,20.5987563 C4.48022835,22.3846542 5.18413499,23.7025521 6.4249554,24.5536859 C7.66493027,25.4052317 9.21521594,25.8307986 11.0753896,25.8307986 C13.2167032,25.8307986 14.8731033,25.1444535 16.0428989,23.7709394 C17.2122718,22.3978373 17.797381,20.5439641 17.797381,18.2093197 L17.797381,3.46072817 L2.704608,3.46072817 C2.42262258,3.46072817 2.19010087,3.37174225 2.00704287,3.19294648 C1.8235621,3.01456268 1.73224448,2.78797817 1.73224448,2.51319296 L1.73224448,0.947288028 C1.73224448,0.673326761 1.8235621,0.447154225 2.00704287,0.267946479 C2.19010087,0.0895626761 2.42262258,0.000164788732 2.704608,0.000164788732 L20.8413016,0.000164788732 C21.1507668,0.000164788732 21.3972398,0.0895626761 21.5811434,0.267946479 C21.7642014,0.447154225 21.8559417,0.686921831 21.8559417,0.988897183 L21.8559417,18.2917141 C21.8559417,20.4891718 21.425988,22.4114324 20.5665032,24.0593197 C19.7061728,25.707207 18.4590109,26.9843197 16.8250174,27.8906577 C15.1901784,28.7969958 13.2589799,29.2501648 11.033113,29.2501648 C7.960867,29.2501648 5.41707947,28.515619 3.40217314,27.0461155" id="Fill-10" fill="#FEFEFE" mask="url(#mask-4)"></path>
                    </g>
                    <path d="M151.109157,28.9788107 C150.939612,28.7974607 150.854839,28.5680571 150.854839,28.2893464 L150.854839,1.003275 C150.854839,0.696567857 150.939612,0.453375 151.109157,0.272025 C151.278703,0.0910928571 151.504622,0 151.78734,0 L169.208151,0 C169.518844,0 169.765956,0.0910928571 169.949913,0.272025 C170.133446,0.453375 170.225849,0.696567857 170.225849,1.003275 L170.225849,2.50714286 C170.225849,2.78585357 170.133446,3.00898929 169.949913,3.17613214 C169.765956,3.34285714 169.518844,3.42684643 169.208151,3.42684643 L154.754388,3.42684643 L154.754388,12.7446429 L168.27565,12.7446429 C168.586343,12.7446429 168.833455,12.8357357 169.017412,13.0166679 C169.200946,13.1980179 169.292924,13.4412107 169.292924,13.7479179 L169.292924,15.1682143 C169.292924,15.4473429 169.200946,15.6771643 169.017412,15.8580964 C168.833455,16.0394464 168.586343,16.1297036 168.27565,16.1297036 L154.754388,16.1297036 L154.754388,25.7822036 L169.547242,25.7822036 C169.857935,25.7822036 170.105048,25.8724607 170.289005,26.0538107 C170.472961,26.2351607 170.564516,26.4787714 170.564516,26.7850607 L170.564516,28.2893464 C170.564516,28.5680571 170.465332,28.7974607 170.267811,28.9788107 C170.069867,29.1601607 169.829536,29.25 169.547242,29.25 L151.78734,29.25 C151.504622,29.25 151.278703,29.1601607 151.109157,28.9788107" id="Fill-13" fill="#FFFFFF"></path>
                    <path d="M187.151648,26.5317857 C189.130923,26.5317857 190.708404,26.2601786 191.881967,25.7169643 C193.055531,25.17375 193.904095,24.3242464 194.427659,23.1680357 C194.950799,22.0126607 195.240583,20.4456964 195.297861,18.4671429 C195.354291,16.7957143 195.382293,15.7510714 195.382293,15.3332143 C195.382293,14.8881964 195.354291,13.856925 195.297861,12.2410714 C195.240583,9.45605357 194.569369,7.41482143 193.282522,6.11946429 C191.994826,4.82410714 189.881054,4.17642857 186.939507,4.17642857 L180.617707,4.17642857 L180.617707,26.5317857 L187.151648,26.5317857 Z M176.884026,29.7283929 C176.713889,29.5474607 176.629032,29.3176393 176.629032,29.0389286 L176.629032,1.75285714 C176.629032,1.44656786 176.713889,1.203375 176.884026,1.02160714 C177.053314,0.841092857 177.279456,0.75 177.562452,0.75 L187.151648,0.75 C191.422046,0.75 194.505727,1.69017857 196.400994,3.57053571 C198.295413,5.45089286 199.271261,8.28563571 199.32854,12.0739286 C199.356118,12.8820643 199.370968,13.9689107 199.370968,15.3332143 C199.370968,16.6983536 199.356118,17.7985714 199.32854,18.6342857 C199.271261,21.2814107 198.840615,23.4329571 198.034055,25.0901786 C197.22792,26.7482357 195.961862,27.9804964 194.237156,28.7882143 C192.511602,29.59635 190.220055,30 187.363789,30 L177.562452,30 C177.279456,30 177.053314,29.9097429 176.884026,29.7283929 Z" id="Fill-15" fill="#FFFFFF"></path>
                    <path d="M205.690226,28.9788107 C205.520681,28.7974607 205.435484,28.5680571 205.435484,28.2893464 L205.435484,1.003275 C205.435484,0.696567857 205.520681,0.453375 205.690226,0.272025 C205.859348,0.0910928571 206.085691,0 206.368409,0 L223.788796,0 C224.099913,0 224.347025,0.0910928571 224.530558,0.272025 C224.714515,0.453375 224.806494,0.696567857 224.806494,1.003275 L224.806494,2.50714286 C224.806494,2.78585357 224.714515,3.00898929 224.530558,3.17613214 C224.347025,3.34285714 224.099913,3.42684643 223.788796,3.42684643 L209.335457,3.42684643 L209.335457,12.7446429 L222.856719,12.7446429 C223.166988,12.7446429 223.414101,12.8357357 223.598481,13.0166679 C223.782015,13.1980179 223.873569,13.4412107 223.873569,13.7479179 L223.873569,15.1682143 C223.873569,15.4473429 223.782015,15.6771643 223.598481,15.8580964 C223.414101,16.0394464 223.166988,16.1297036 222.856719,16.1297036 L209.335457,16.1297036 L209.335457,25.7822036 L224.128311,25.7822036 C224.43858,25.7822036 224.685693,25.8724607 224.870074,26.0538107 C225.053607,26.2351607 225.145161,26.4787714 225.145161,26.7850607 L225.145161,28.2893464 C225.145161,28.5680571 225.045977,28.7974607 224.848456,28.9788107 C224.650512,29.1601607 224.410181,29.25 224.128311,29.25 L206.368409,29.25 C206.085691,29.25 205.859348,29.1601607 205.690226,28.9788107" id="Fill-17" fill="#FFFFFF"></path>
                    <path d="M231.489191,28.9788107 C231.302132,28.7974607 231.209677,28.5680571 231.209677,28.2893464 L231.209677,1.003275 C231.209677,0.696567857 231.295681,0.453375 231.46769,0.272025 C231.639698,0.0910928571 231.882659,0 232.198294,0 L234.21982,0 C234.735845,0 235.094052,0.208928571 235.294871,0.626785714 L244.453875,17.7175607 L253.699314,0.626785714 C253.928945,0.208928571 254.272531,0 254.731793,0 L256.752889,0 C257.067664,0 257.311915,0.0910928571 257.483923,0.272025 C257.655931,0.453375 257.741935,0.696567857 257.741935,1.003275 L257.741935,28.2893464 C257.741935,28.5680571 257.648621,28.7974607 257.461992,28.9788107 C257.275793,29.1601607 257.038852,29.25 256.752889,29.25 L254.774365,29.25 C254.487541,29.25 254.25877,29.1601607 254.086762,28.9788107 C253.914324,28.7974607 253.82875,28.5680571 253.82875,28.2893464 L253.82875,7.52142857 L246.475401,21.3529179 C246.188578,21.9375 245.729316,22.2304179 245.098906,22.2304179 L243.808845,22.2304179 C243.207246,22.2304179 242.748415,21.9375 242.43321,21.3529179 L235.122863,7.52142857 L235.122863,28.2893464 C235.122863,28.5680571 235.029119,28.7974607 234.84335,28.9788107 C234.656291,29.1601607 234.41978,29.25 234.133386,29.25 L232.198294,29.25 C231.911471,29.25 231.67539,29.1601607 231.489191,28.9788107" id="Fill-19" fill="#FFFFFF"></path>
                    <g id="Group-23" transform="translate(262.290323, 0.000000)">
                        <mask id="mask-6" fill="white">
                            <use xlink:href="#path-5"></use>
                        </mask>
                        <g id="Clip-22"></g>
                        <path d="M8.03113654,28.9824655 C7.84518001,28.8036697 7.7530587,28.5774972 7.7530587,28.302712 L7.7530587,25.9132754 C7.7530587,25.6389021 7.84518001,25.4049021 8.03113654,25.2129232 C8.21709306,25.0209444 8.45232377,24.924131 8.7381141,24.924131 L11.3950643,24.924131 C11.6799977,24.924131 11.9229409,25.0209444 12.1234654,25.2129232 C12.3227046,25.4049021 12.4229668,25.6389021 12.4229668,25.9132754 L12.4229668,28.302712 C12.4229668,28.5774972 12.3227046,28.8036697 12.1234654,28.9824655 C11.9229409,29.1612613 11.6799977,29.2498352 11.3950643,29.2498352 L8.7381141,29.2498352 C8.45232377,29.2498352 8.21709306,29.1612613 8.03113654,28.9824655 M8.43818422,22.3699056 C8.26722419,22.2055289 8.18152994,21.9859479 8.18152994,21.7111627 L8.18152994,20.0220782 C8.23808815,18.5665817 8.63099628,17.3026521 9.35982588,16.2319373 C10.088227,15.1603986 11.1229851,13.9660923 12.4662424,12.6477824 C13.494145,11.6318599 14.2581092,10.7939092 14.7581351,10.1347542 C15.2577326,9.47518732 15.5512354,8.76165211 15.6365012,7.9925007 C15.6647803,7.8829162 15.6797768,7.70412042 15.6797768,7.45693732 C15.6797768,6.19383169 15.1227642,5.19109225 14.0083104,4.44913099 C12.8947137,3.70758169 11.5943034,3.33721901 10.1096506,3.33721901 C8.50931045,3.33721901 7.17419404,3.7425993 6.10301592,4.55212394 C5.0318378,5.36288451 4.33899979,6.63299366 4.02493036,8.36286338 C3.91052854,8.96763803 3.53904397,9.26920141 2.91133359,9.26920141 L1.02563163,9.26920141 C0.768977349,9.26920141 0.547029243,9.18680704 0.361929663,9.02243028 C0.17554467,8.85722958 0.0829948808,8.63806056 0.0829948808,8.36286338 C0.139981557,6.85298662 0.589876367,5.45846197 1.43310778,4.18176127 C2.27505379,2.90423662 3.46063373,1.88872606 4.98899067,1.13275775 C6.51691914,0.37761338 8.26722419,-0.000164788732 10.2377635,-0.000164788732 C12.3227046,-0.000164788732 14.0794367,0.34383169 15.5079598,1.02976479 C16.9360545,1.71652183 17.9930931,2.61626831 18.6790755,3.72818028 C19.3642011,4.84050423 19.7069781,6.01503592 19.7069781,7.25095141 C19.7069781,8.65124366 19.3783406,9.86038099 18.7214942,10.8763035 C18.0642193,11.892638 17.0787354,13.0737613 15.765471,14.4188493 C14.6792964,15.5455923 13.8652011,16.499307 13.3231849,17.2824655 C12.7798834,18.065212 12.4662424,18.9373563 12.3801197,19.8980746 C12.3227046,20.6672261 12.2944255,21.2443986 12.2944255,21.6283563 C12.1513161,22.2879232 11.7943995,22.6175007 11.2232473,22.6175007 L9.12416669,22.6175007 C8.8379479,22.6175007 8.61000119,22.5351063 8.43818422,22.3699056" id="Fill-21" fill="#FEFEFE" mask="url(#mask-6)"></path>
                    </g>
                </g>
            </g>
        </g>
    </g>
</svg>